<?xml version="1.0" encoding="utf-8"?>
<!DOCTYPE svg PUBLIC "-//W3C//DTD SVG 1.0//EN" "http://www.w3.org/TR/2001/REC-SVG-20010904/DTD/svg10.dtd">
<svg version="1.0" xmlns="http://www.w3.org/2000/svg" width="650px" height="650px" viewBox="0 0 650 650" preserveAspectRatio="xMidYMid meet">
 <g fill="#0a3f85">
  <path d="M168.85 519.56 l0 -13.01 -13.33 0 -13.33 0 0 -13.65 0 -13.65 13.33 0 13.33 0 0 -12.70 c0 -11.87 0.06 -12.70 1.21 -13.33 0.76 -0.38 6.35 -0.63 13.65 -0.63 l12.44 0 0 13.33 0 13.33 13.33 0 13.33 0 0 13.65 0 13.65 -13.33 0 -13.33 0 0 13.01 0 13.01 -13.65 0 -13.65 0 0 -13.01z"/>
  <path d="M42.21 527.36 c1.90 -11.55 13.08 -37.13 22.79 -52.18 15.74 -24.38 41.45 -50.59 69.89 -71.22 10.66 -7.81 19.30 -13.39 33.07 -21.71 27.61 -16.57 50.34 -27.68 112.92 -55.03 88.68 -38.78 121.88 -55.42 160.91 -80.49 5.40 -3.49 10.28 -6.73 10.85 -7.17 0.51 -0.51 1.27 -0.89 1.65 -0.89 0.38 0 3.62 1.71 7.17 3.81 3.49 2.09 11.49 6.35 17.65 9.46 26.85 13.46 44.94 20.57 114.07 44.75 39.42 13.77 40.05 14.03 38.91 14.22 -0.51 0.13 -4.06 -0.51 -7.87 -1.40 -8.82 -2.03 -21.52 -4.44 -30.34 -5.78 -3.81 -0.63 -8.82 -1.78 -11.11 -2.67 -2.29 -0.89 -13.77 -4.89 -25.45 -8.89 -22.66 -7.74 -44.56 -15.93 -56.49 -21.07 -5.33 -2.29 -7.55 -2.98 -8.38 -2.54 -0.95 0.51 -1.14 1.90 -1.27 10.92 l-0.19 10.28 -2.60 0.19 -2.67 0.19 -0.38 -2.92 c-0.25 -1.59 -0.38 -7.36 -0.32 -12.89 l0.13 -9.97 -12.31 -6.47 c-6.79 -3.55 -12.50 -6.47 -12.76 -6.47 -0.32 -0.06 -0.51 10.79 -0.51 24.06 0 23.61 0 24.12 1.27 24.12 0.70 0 4.76 -0.57 9.01 -1.27 19.17 -3.11 48.50 -4.13 65.89 -2.22 27.36 2.86 50.91 11.11 67.48 23.55 35.93 26.98 46.02 83.73 23.30 130.89 -6.73 13.90 -13.33 22.98 -25.14 34.40 -6.03 5.84 -19.55 16.50 -20.88 16.50 -0.25 0 -2.09 1.08 -4.06 2.48 -1.97 1.33 -4.32 2.67 -5.14 2.92 -0.89 0.25 -2.67 1.21 -4 2.03 -5.08 3.24 -27.80 9.97 -40.05 11.93 -3.49 0.57 -6.92 1.33 -7.62 1.78 -0.95 0.51 -16.38 0.76 -55.86 0.95 l-54.53 0.25 -25.90 -25.90 c-14.22 -14.22 -25.77 -26.09 -25.58 -26.41 0.19 -0.25 33.07 -0.51 73.06 -0.51 62.59 0 73.63 -0.13 79.47 -1.02 13.27 -1.90 22.28 -4.82 33.26 -10.66 6.47 -3.43 8.70 -5.01 13.52 -9.71 7.62 -7.49 11.74 -13.08 15.87 -21.46 4.13 -8.44 5.71 -14.22 6.67 -23.55 1.40 -13.33 -0.95 -26.41 -6.73 -38.02 -9.97 -20 -26.66 -33.52 -50.15 -40.63 -14.28 -4.32 -20.44 -5.08 -41.26 -5.08 -17.08 0 -24.69 0.51 -35.23 2.22 -13.84 2.29 -20.95 3.62 -26.66 5.08 -1.21 0.32 -5.21 1.33 -8.89 2.22 -12.89 3.24 -45.07 14.73 -47.29 16.88 -0.32 0.32 -0.95 0.57 -1.33 0.57 -0.44 0 -5.97 2.48 -12.25 5.52 l-11.49 5.46 0 59.22 0 59.16 23.04 22.41 c12.63 12.31 23.23 22.72 23.49 23.23 0.44 0.70 -6.16 0.83 -38.02 0.83 l-38.47 0 -3.43 -3.11 c-1.90 -1.71 -11.87 -11.24 -22.28 -21.14 -60.11 -57.38 -98.52 -93.31 -99.40 -92.99 -1.33 0.51 -18.15 13.20 -23.30 17.58 -32.37 27.42 -54.08 60.37 -61.13 92.74 -0.89 4 -1.78 8.57 -2.03 10.28 l-0.38 2.98 -27.29 0 -27.36 0 0.44 -2.67z m289.07 -110.96 c-0.06 -29.33 -0.25 -53.32 -0.38 -53.32 -1.33 0 -19.93 11.04 -33.64 20.06 l-10.98 7.17 0 17.96 0 17.96 22.03 21.71 c12.19 11.93 22.34 21.71 22.60 21.71 0.25 0.06 0.44 -23.93 0.38 -53.26z m-51.35 -9.97 c0 -8.38 -0.19 -10.98 -0.76 -10.98 -0.44 0 -2.67 1.46 -4.95 3.17 l-4.13 3.11 -3.30 -3.30 c-1.84 -1.78 -3.36 -3.49 -3.36 -3.75 0 -0.25 3.55 -3.17 7.93 -6.54 l7.93 -6.09 0 -14.60 c0 -8.51 -0.25 -14.54 -0.57 -14.54 -0.57 0 -11.62 6.60 -32.31 19.36 -5.01 3.05 -9.01 5.78 -8.89 6.09 0.13 0.32 9.46 9.52 20.82 20.50 13.90 13.52 20.76 19.80 21.07 19.23 0.25 -0.38 0.51 -5.71 0.51 -11.68z m19.04 -37.64 c6.09 -4.06 15.87 -10.35 21.77 -13.90 l10.60 -6.54 0 -12.95 c0 -7.11 -0.19 -12.95 -0.38 -12.95 -0.57 0 -14.98 8.25 -39.10 22.41 l-5.59 3.24 0 14.54 c0 11.43 0.19 14.41 0.83 14.03 0.38 -0.25 5.78 -3.81 11.87 -7.87z m80.04 -44.05 c22.47 -9.52 38.72 -14.92 62.02 -20.69 l8.38 -2.09 0 -24.63 c0 -13.65 -0.25 -24.69 -0.57 -24.69 -0.32 0 -4.38 2.54 -9.01 5.59 -4.70 3.05 -11.24 7.30 -14.60 9.39 l-6.09 3.75 -0.32 3.81 c-0.19 2.09 -0.25 8.70 -0.06 14.73 0.13 6.03 0.06 11.62 -0.19 12.50 -0.25 1.02 -1.08 1.84 -2.29 2.22 -3.87 1.33 -3.68 1.97 -3.68 -13.90 0 -9.90 -0.19 -14.60 -0.70 -14.60 -0.32 0 -4.44 2.22 -9.01 4.95 -4.63 2.73 -11.55 6.79 -15.49 9.08 l-7.11 4.06 -0.06 11.74 0 11.81 -2.35 0.83 c-1.33 0.51 -2.79 1.02 -3.17 1.14 -0.63 0.25 -0.83 -2.03 -0.83 -10.22 0 -8.51 -0.19 -10.54 -0.89 -10.54 -0.44 0 -4.13 1.84 -8.06 4.06 -4 2.22 -11.49 6.47 -16.76 9.46 l-9.52 5.33 -0.19 13.39 -0.13 13.39 14.79 -7.55 c8.13 -4.19 19.80 -9.71 25.90 -12.31z"/>
  <path d="M421.48 445.03 l0 -15.23 1.78 -1.21 c2.98 -2.09 20.57 -10.28 22.15 -10.28 l1.46 0 0 20.95 0 20.95 -12.70 0 -12.70 0 0 -15.17z"/>
  <path d="M460.84 433.29 l0 -26.98 1.78 -1.21 c3.68 -2.54 19.61 -9.78 21.14 -9.52 l1.52 0.19 0.19 32.25 0.13 32.18 -12.38 0 -12.38 0 0 -26.91z"/>
  <path d="M499.43 456.02 c-0.19 -2.41 -0.38 -19.80 -0.38 -38.66 -0.13 -26.41 0.06 -34.66 0.70 -35.86 0.57 -1.14 3.81 -3.11 10.92 -6.79 5.59 -2.86 10.79 -5.21 11.55 -5.27 1.02 0 1.52 0.44 1.84 1.52 0.63 2.67 -0.13 85.69 -0.83 85.88 -0.38 0.13 -1.78 0.83 -3.11 1.52 -2.03 1.02 -4.19 1.33 -11.49 1.65 l-8.95 0.38 -0.25 -4.38z"/>
  <path d="M130.38 374.89 c-4.51 -4.70 -23.30 -23.87 -41.70 -42.59 -18.47 -18.79 -33.33 -34.34 -33.01 -34.66 0.32 -0.32 30.66 -0.63 67.48 -0.76 73.13 -0.25 68.68 0 80.36 -3.94 8.95 -2.98 15.74 -6.86 24.82 -14.16 12.31 -9.84 21.14 -23.04 25.01 -37.58 2.03 -7.30 2.16 -22.72 0.32 -29.52 -5.08 -18.92 -19.42 -32.69 -39.61 -38.28 l-6.16 -1.71 -73.19 -0.19 -73.13 -0.13 -5.33 -7.17 c-2.92 -3.87 -12.63 -17.20 -21.58 -29.58 -13.01 -17.96 -16.12 -22.60 -15.55 -23.30 0.63 -0.76 15.68 -0.89 98.26 -0.89 93.31 0 97.88 0.06 105.88 1.27 31.80 4.63 57.13 19.23 75.09 43.16 5.14 6.92 12.38 20.88 15.17 29.52 6.28 19.04 7.43 41.20 3.17 61.13 -6.54 30.34 -23.55 56.56 -47.67 73.38 -6.28 4.32 -10.92 6.54 -27.80 13.33 -38.09 15.36 -67.92 29.90 -93.06 45.45 -5.14 3.11 -9.39 5.71 -9.46 5.71 -0.06 0 -3.81 -3.81 -8.32 -8.51z"/>
  <path d="M557.32 277.14 c-6.09 -2.22 -13.65 -5.01 -16.82 -6.28 -3.11 -1.21 -8.13 -3.17 -11.04 -4.25 l-5.40 -2.09 2.03 -1.84 c13.58 -12.06 20.06 -27.17 18.98 -43.93 -0.51 -7.74 -1.90 -12.82 -5.40 -20 -2.35 -4.95 -3.81 -6.92 -8.32 -11.49 -9.71 -9.78 -21.52 -15.11 -38.15 -17.14 -3.36 -0.38 -28.88 -0.63 -67.92 -0.63 l-62.59 0 -3.49 -4.25 c-1.90 -2.35 -4.32 -5.27 -5.40 -6.47 -1.08 -1.27 -8.63 -10.41 -16.76 -20.38 -8.19 -9.97 -15.93 -19.36 -17.27 -20.88 -1.33 -1.52 -2.41 -3.05 -2.41 -3.36 0 -0.32 38.34 -0.44 92.87 -0.32 92.61 0.19 92.80 0.19 101.56 1.59 38.59 6.28 64.56 22.41 80.30 49.89 5.08 8.89 9.20 21.58 10.98 33.96 0.95 6.79 0.38 25.39 -1.02 31.48 -3.24 14.60 -9.84 27.99 -18.85 38.28 -4.51 5.21 -12.50 12.19 -13.77 12.12 -0.57 0 -6.03 -1.84 -12.12 -4z"/>
 </g>
</svg>